<svg id="Layer_1" data-name="Layer 1" xmlns="http://www.w3.org/2000/svg" viewBox="0 0 136 250.72"><defs><style>.cls-1{fill:#ed1c24;}</style></defs><g id="water"><path class="cls-1" d="M128.48,60.1c.22-13.05-4.64-16.37-4.64-16.37s6.72.3,5.87-11.34-16-5.46-12.25,1c0,0-5.09,1.23-9.32-11.8S90.22-2.13,79.35.36,60.49,10.45,59.83,19.75A16.26,16.26,0,0,0,60,25.64s-.91-4.06-3.66-6S43.91,35.19,43.91,35.19s3.66-3.51,5.79-2.29S43.31,59.84,31.81,63.42c0,0,5.31,2.44,13.94-2,0,0,7.52,0,14.38,8.41s-9.74,7.74-6,24.33S75,110.54,79.15,111s19.47-2.87,32.74,2.44l4.87,1.77S133.9,106.78,136,88.31C136,88.31,128.26,73.16,128.48,60.1ZM83.91,44.68a45.53,45.53,0,0,1-11.15-3.93C63.22,36,64.35,28.12,64.35,28.12c1.54,4.07,5.47,6.74,8.69,6.6a3.73,3.73,0,0,0,3.65-3.09c-3.93,1.82-8.09-2.53-8.09-2.53-6.68-7.29-.75-25.25,14.27-21.46S102.65,29.1,102.65,29.1C84.69,28.68,83.91,44.68,83.91,44.68Z"/><path class="cls-1" d="M44.3,183.13s2.09,2.94,4.44,3.37,13.66,2.56,13.66-12.39S38.16,154,31.81,175.39s8.83,45.4,36.79,36.09,20.64-50.11,3.27-68.66S-4.31,94.44.25,63.39s24.21-34.47,41.3-28.77c0,0-22.93-4.18-30.24,21.23s15,42.68,35.92,56.09,72.06,54.46,43.15,114.79-104.32-5.86-67.45-58.65c0,0,18.43-19.69,36-8.38s1.68,28.07,1.68,28.07S51,193.57,44.3,183.13Z"/><path class="cls-1" d="M44.66,43.38S24.8,36.05,19.6,46.92a9.15,9.15,0,0,1,6.75-3c4.51-.11,16.86,3,16.86,3Z"/><path class="cls-1" d="M41.22,50.07s-22.7-5.18-18.06,2.26c0,0-.53-1.46,1.46-1.46S40,53,40,53Z"/><path class="cls-1" d="M37.66,55.75s-11.26-3.23-10.6,0c0,0-.46-.64,2.08-.25s7.56,1.63,7.56,1.63Z"/></g></svg>