<svg id="Layer_1" data-name="Layer 1" xmlns="http://www.w3.org/2000/svg" viewBox="0 0 211.38 165.39"><defs><style>.cls-1{fill:#ed1c24;}</style></defs><g id="shhep"><path class="cls-1" d="M78.61,31.25s-15.77,6.8-20.73,21c0,0-.61,4.33-6.8,14.54s-26.92,40.84-27.23,46.4-11.56,17.25-11.56,17.25-2.07,7.59.92,8.28,21.15-8.51,21.61-12.42L39,128.18S26,142.8,16.09,142.44c0,0,1.06,9.89,6.71,10.95S56.69,141,56.69,141s-9.18,13.06-32.48,16.59a13.53,13.53,0,0,0,11.3,7.77s10.23-5.3,20.82-12c0,0,44.83,3.17,75.54-5.65,0,0,15.53-5.3,17.65-8.47,0,0-44.12,1.41-52.24-20.47s2.12-36,2.12-36L82.61,94.56,80.55,81.41S93.74,71.14,97,71.14l1.49,5.07A38.15,38.15,0,0,1,134,66.6c21.78,5.13,28.62,15.81,28.62,15.81s7.9-25-18.37-29.47c0,0-14.73,12.38-33.74,3.63S78.61,31.25,78.61,31.25Z"/><path class="cls-1" d="M83.74,26.12S108.15,54,122.25,55.67a67.23,67.23,0,0,0,16.42-5.61c8.43-4.22,31.85,3.74,32.56,23.66s-15.7,34.66-30.22,32.79-16.72-12-13.52-18.74,20.72-8.07,27.11,1.64c0,0-3.28-15.69-28.35-17.33s-51.79,54.31,15.09,59.05,79-51.35,64.73-88.89S126.68-22.37,83.74,26.12Z"/><polygon class="cls-1" points="94.87 10.76 87.65 4.5 61.51 17.02 61.51 35.26 94.87 10.76"/><path class="cls-1" d="M26.06,98.32l-7.3,12.52S-3.65,96.77.52,70.19C.52,70.19,8.34,96.22,26.06,98.32Z"/></g></svg>