<svg id="Layer_1" data-name="Layer 1" xmlns="http://www.w3.org/2000/svg" viewBox="0 0 282.39 242.67"><defs><style>.cls-1{fill:#ed1c24;}</style></defs><g id="cancer"><path class="cls-1" d="M92.22,19.44S87.43,9.11,85.49,7.92s21.4-16.32,40.85-1.35c0,0-10.62-1.35-18.85,1.35S92.22,19.44,92.22,19.44Z"/><path class="cls-1" d="M70.12,57.28S93.85,39.81,92,27.49,82,8.08,81.1,8.08,60.55,20.66,53.72,38.15c0,0,7.65,9,15.3,3.82C69,42,71.76,48,70.12,57.28Z"/><path class="cls-1" d="M51,40.09s-11.22,21,5.73,32.23l8.6-7.16s2.88-10.27,2.27-19.58C67.64,45.58,56.06,49.16,51,40.09Z"/><path class="cls-1" d="M67.73,110.29S50.09,91,50.57,76.86c0,0,14.77-1,17.16-10.27,0,0,19.13,10.51,22.23,20.06C90,86.65,70.56,97.87,67.73,110.29Z"/><path class="cls-1" d="M63,128.94S49.16,122.8,42.51,121s-12.8-.51-16.13-2.05,7.17-10.24,7.17-10.24S41.74,119,63,120.5Z"/><path class="cls-1" d="M24.59,113.33S8.72,98.74,8.21,92.34l4.35-1.28,15.87,17.66Z"/><path class="cls-1" d="M8.21,89.71l3.89-1.27s8.53-16.59,9.19-21.85A6.62,6.62,0,0,0,17.19,63S8.58,81,8.21,89.71Z"/><path class="cls-1" d="M21.94,63l-3.62-2.46s7.07-8.7,12.81-11.32C31.13,49.2,22.6,59.36,21.94,63Z"/><path class="cls-1" d="M82.85,150.48S70.39,142,67.64,136.22c0,0-22.53-1.84-29.66-6.21s-18.17-6.68-17.71-3.69-.46,10.36,6.9,14.27c0,0,5.06.92,8.28-1.84Z"/><path class="cls-1" d="M18.32,128,5.13,137.73s1.43,6.5,3.08,6.79l13-5.15S16.78,132.93,18.32,128Z"/><path class="cls-1" d="M3.83,141.73l2.79,4.71v17.95S0,164,0,162.62-.15,151.14,3.83,141.73Z"/><path class="cls-1" d="M1.33,166.3H6s4,8.68,4.27,11.77Z"/><path class="cls-1" d="M36,202.35s-19-10.51-19-14.51,4.22-3.75,4.22-3.75Z"/><path class="cls-1" d="M14.75,178.07s3.79,3.77,5.5,3.77,24.11-18.51,24.11-18.51l-4.13-8.51S15,174.56,14.75,178.07Z"/><path class="cls-1" d="M43,150.48s1.5,12,4.5,13.91,11.26-2.56,11.26-2.56l33,.75,4-3L88,154.82Z"/><path class="cls-1" d="M71.23,172.19s-.78,11.38,4,13.22,43.45-3.62,45.56-14.32c0,0-8.43-4.15-10.27-4.79S71.23,172.19,71.23,172.19Z"/><polygon class="cls-1" points="59.12 185.77 64.65 193.21 70.26 184.08 69.37 178.07 59.12 185.77"/><path class="cls-1" d="M54.12,214.9s8.62,5.53,13.52,5.53,1.73-27.22,1.73-27.22l-4.68,3.52-2.44-1.31S54.65,207,54.12,214.9Z"/><path class="cls-1" d="M60.7,223.06s10.53,18.17,21.07,19.49,17.11-8.16,17.11-8.16-23.62-3.16-34.19-11.33Z"/><path class="cls-1" d="M73.08,210.43v10s15.53,1,24.48,7.9C97.56,228.33,91.51,215.43,73.08,210.43Z"/><path class="cls-1" d="M171,85.09l2.91-7.88-5-1.66-8.3,9.54c-2.5-5-19.47-4.56-19.47-4.56s-17-.42-19.46,4.56l-8.3-9.54-5,1.66,2.9,7.88s-41.87,1.93-43.71,46c0,0,29.29,35.75,73.55,40,44.27-4.29,73.55-40,73.55-40C212.9,87,171,85.09,171,85.09Z"/><path class="cls-1" d="M158.89,13.37s9.15,4.9,14.38,10.13,13.23,11,14.54,10.46-.82-7.19.82-11.77C188.63,22.19,181.27,14,158.89,13.37Z"/><path class="cls-1" d="M190.17,19.44S195,9.11,196.9,7.92,175.5-8.4,156,6.57c0,0,10.63-1.35,18.86,1.35S190.17,19.44,190.17,19.44Z"/><path class="cls-1" d="M212.27,57.28S188.54,39.81,190.4,27.49s10-19.41,10.88-19.41,20.56,12.58,27.39,30.07c0,0-7.65,9-15.31,3.82C213.36,42,210.63,48,212.27,57.28Z"/><path class="cls-1" d="M231.34,40.09s11.23,21-5.73,32.23L217,65.16s-2.88-10.27-2.28-19.58C214.74,45.58,226.33,49.16,231.34,40.09Z"/><path class="cls-1" d="M214.66,110.29S232.3,91,231.82,76.86c0,0-14.77-1-17.16-10.27,0,0-19.13,10.51-22.24,20.06C192.42,86.65,211.83,97.87,214.66,110.29Z"/><path class="cls-1" d="M219.4,128.94s13.83-6.14,20.48-7.93,12.8-.51,16.12-2.05-7.16-10.24-7.16-10.24S240.65,119,219.4,120.5Z"/><path class="cls-1" d="M257.8,113.33s15.86-14.59,16.38-21l-4.35-1.28L254,108.72Z"/><path class="cls-1" d="M274.18,89.71l-3.89-1.27s-8.53-16.59-9.19-21.85A6.58,6.58,0,0,1,265.2,63S273.8,81,274.18,89.71Z"/><path class="cls-1" d="M260.44,63l3.63-2.46S257,51.82,251.26,49.2C251.26,49.2,259.79,59.36,260.44,63Z"/><path class="cls-1" d="M199.54,150.48S212,142,214.74,136.22c0,0,22.53-1.84,29.66-6.21s18.18-6.68,17.72-3.69.46,10.36-6.9,14.27c0,0-5.06.92-8.28-1.84Z"/><path class="cls-1" d="M264.07,128l13.18,9.74s-1.42,6.5-3.07,6.79l-13-5.15S265.61,132.93,264.07,128Z"/><path class="cls-1" d="M278.56,141.73l-2.8,4.71v17.95s6.63-.44,6.63-1.77S282.53,151.14,278.56,141.73Z"/><path class="cls-1" d="M281.06,166.3h-4.71s-4,8.68-4.26,11.77Z"/><path class="cls-1" d="M246.41,202.35s19-10.51,19-14.51-4.22-3.75-4.22-3.75Z"/><path class="cls-1" d="M267.64,178.07s-3.79,3.77-5.51,3.77S238,163.33,238,163.33l4.13-8.51S267.36,174.56,267.64,178.07Z"/><path class="cls-1" d="M239.41,150.48s-1.5,12-4.51,13.91-11.25-2.56-11.25-2.56l-33,.75-4-3,7.75-4.75Z"/><path class="cls-1" d="M211.15,172.19s.79,11.38-4,13.22-43.44-3.62-45.55-14.32c0,0,8.43-4.15,10.27-4.79S211.15,172.19,211.15,172.19Z"/><polygon class="cls-1" points="223.26 185.77 217.74 193.21 212.13 184.08 213.02 178.07 223.26 185.77"/><path class="cls-1" d="M228.27,214.9s-8.62,5.53-13.53,5.53S213,193.21,213,193.21l4.68,3.52,2.44-1.31S227.74,207,228.27,214.9Z"/><path class="cls-1" d="M221.68,223.06s-10.53,18.17-21.06,19.49-17.11-8.16-17.11-8.16,23.62-3.16,34.19-11.33Z"/><path class="cls-1" d="M209.31,210.43v10s-15.54,1-24.49,7.9C184.82,228.33,190.88,215.43,209.31,210.43Z"/><path class="cls-1" d="M123.49,13.37s-9.15,4.9-14.37,10.13S95.88,34.45,94.58,34s.81-7.19-.82-11.77C93.76,22.19,101.12,14,123.49,13.37Z"/></g></svg>