<svg id="Layer_1" data-name="Layer 1" xmlns="http://www.w3.org/2000/svg" viewBox="0 0 212.83 199.94"><defs><style>.cls-1{fill:#ed1c24;}</style></defs><g id="capricorn"><path class="cls-1" d="M2.23,132.41s-6.24-4.61,2.17-13l24-33.53L26.68,78.2,52.36,43.74S45.73,61.63,54,79c0,0-13.21,8.6-13.37,9s-.81,9.69-.81,9.69,7-5.52,10.54-7.46S54,81.21,54,81.21s10.8,17.66,29.26,12.2c0,0,15.25,6.59,14,22.32s-18.39,22.72-18.39,22.72,8.23-6.67,3.34-14.23-21.13,13.12-21.13,13.12,1.12-11.57-11.34-11.79c0,0-5.34-2.67-28.91,21.8,0,0-5.54.87-13.51-4,0,0-3.57-8.82-.63-12.39s5.45-5.88,3.56-6.71S5.77,120.59,2.23,132.41Z"/><path class="cls-1" d="M23.3,149a25.12,25.12,0,0,0,18.16,10.2s-7.46-6,9.94-20.89l7-5s-3.48-6.46-8.71-5.47S31.51,149.46,23.3,149Z"/><path class="cls-1" d="M43.45,151,57.12,136S77,151.2,68.81,163.63,39,187.76,45.68,199.94c0,0-14.13-11.33,3-26.21S43.45,151,43.45,151Z"/><path class="cls-1" d="M88.55,90.59s26,16.37,10.67,39.83-26,16.27-25.09,51.11a61,61,0,0,1,28.11-35.31s36.7-10.45,36.94-40.88c0,0-4.63-31.71-32.28-43.21C106.9,62.13,111.1,79.68,88.55,90.59Z"/><path class="cls-1" d="M59.36,81S48.82,57.75,56.51,40,107.2,3.51,122.7,1.32s97.9-12,89.53,86.46c0,0-6,48.74-52,62.45,0,0,24.83-12.93,35.69-51.47S187.51,26.59,141,25.4,59.4,74.69,59.36,81Z"/><path class="cls-1" d="M64.66,82.32s5.61-25.81,42-38.58a22.61,22.61,0,0,1,.27,13.88C104.64,65.42,90,92,77,91.42,77,91.42,75.31,83.42,64.66,82.32Z"/></g></svg>