<svg id="Layer_1" data-name="Layer 1" xmlns="http://www.w3.org/2000/svg" viewBox="0 0 213.75 237.31"><defs><style>.cls-1{fill:#ed1c24;}</style></defs><path class="cls-1" d="M95,179.78s-9.26-4.46-10.63-14.4l-10.63-11s11.66,3.09,13.71,2.4c0,0,1.68,7.54,3.43,8.52l.78-8.36s11.24-4.67,13.22-6.61,2-.39,2-.39V128l-3.73.2-9.92-4.67-2.13,4.28L96.7,137h5.45l-.39,7.77s-7.58,8-11.28,8.16-12,0-12,0-8.94-5.83-9.52-7.58,7.58-7.19,9.13-7-7-4.67-7-4.67S53.91,123.1,51.9,114.84a47.48,47.48,0,0,1-.21-22.56s.81-4.43,9.47-9.26c0,0,4.57-1.51,8.73,4.82,0,0,2.38,5.15,12.48,5l9.7.2-4.35-9.5S75,77.21,70.17,77.38s-6.93,1.48-13.36,1.32-9.06-9.49-6-18S68,40.44,84.47,48.11c0,0,8.77,5.76,9,7.4s0-5.75-6.85-11.51c0,0,18.3,7,20.19,21.77V14.4S79-5.84,48,1.67L64,7.2S25.78,18.31,14,36.59c0,0,16-4.57,20.24-4.57L8.81,51.93h9.47s-14.69,24.8-15,33.29c0,0,12.08-10.44,18.93-10.44,0,0-17,16-22.19,32.63l12.73-4.89S4.9,129.93,6.2,146.58c0,0,12.08-17,16.65-19.91,0,0-6.21,13.7-4.57,21.54,0,0,4.89-4.9,5.87-4.9s-5.87,18.61-5.22,24.15c0,0,10.77-7.83,14-7.5,0,0-2.93,22.52-2,26.76,0,0,3.92-6.85,9.47-10.12,0,0,2.61,19.91,11.1,30.68,0,0-.33-20.23,12.07-34.27,0,0-6.85,19.91,9.47,32.31,0,0-2.29-10.77,2.28-18.6,0,0,0,19.58,16.64,26.43,12.17,5,14.46,15.59,14.82,20.93V179.44Z"/><path class="cls-1" d="M106.85,234.08v3.23s0-.15,0-.41c0,.26,0,.41,0,.41v-3.23a4.32,4.32,0,0,0,0,.5Z"/><path class="cls-1" d="M213.75,107.41c-5.22-16.64-22.19-32.63-22.19-32.63,6.85,0,18.93,10.44,18.93,10.44-.33-8.49-15-33.29-15-33.29h9.46L179.48,32c4.25,0,20.24,4.57,20.24,4.57C188,18.31,149.78,7.2,149.78,7.2l16-5.53c-31-7.51-58.87,12.73-58.87,12.73V65.77C108.79,51,127.09,44,127.09,44c-6.85,5.76-7.12,13.16-6.85,11.51s9-7.4,9-7.4C145.72,40.44,160,52.22,163,60.72s.38,17.81-6.05,18-8.57-1.16-13.36-1.32S126,83.49,126,83.49L121.68,93l9.7-.2c10.1.2,12.48-5,12.48-5C148,81.51,152.59,83,152.59,83c8.66,4.83,9.47,9.26,9.47,9.26a47.6,47.6,0,0,1-.2,22.56c-2,8.26-19.15,18.8-19.15,18.8s-8.56,4.86-7,4.67,9.72,5.24,9.14,7-9.53,7.58-9.53,7.58-8.36.2-12,0S112,144.72,112,144.72l-.38-7.77h5.44l5.64-9.14-2.14-4.28-9.92,4.67-3.72-.2v22s0-1.56,2,.39S122.1,157,122.1,157l.78,8.36c1.75-1,3.43-8.52,3.43-8.52,2.06.69,13.71-2.4,13.71-2.4l-10.63,11c-1.37,9.94-10.62,14.4-10.62,14.4l-11.86-.34v54.64c.35-5.34,2.64-15.92,14.81-20.93,16.64-6.85,16.64-26.43,16.64-26.43,4.57,7.83,2.29,18.6,2.29,18.6C157,192.92,150.11,173,150.11,173c12.4,14,12.08,34.27,12.08,34.27,8.48-10.77,11.09-30.68,11.09-30.68,5.55,3.27,9.47,10.12,9.47,10.12,1-4.24-2-26.76-2-26.76,3.26-.33,14,7.5,14,7.5.66-5.54-6.2-24.15-5.22-24.15s5.88,4.9,5.88,4.9c1.63-7.84-4.57-21.54-4.57-21.54,4.57,2.93,16.64,19.91,16.64,19.91,1.31-16.65-6.53-44.06-6.53-44.06Z"/></svg>