<svg id="Layer_1" data-name="Layer 1" xmlns="http://www.w3.org/2000/svg" viewBox="0 0 246.04 190.2"><defs><style>.cls-1{fill:none;stroke:#ed1c24;stroke-miterlimit:10;stroke-width:1.14px;}.cls-2{fill:#ed1c24;}</style></defs><g id="weight"><line class="cls-1" x1="40.5" y1="41.57" x2="65.95" y2="126.17"/><line class="cls-1" x1="36.99" y1="40.83" x2="10.98" y2="127.28"/><path class="cls-2" d="M0,132.6s2.8,8.48,9.47,10.1,45.47,3.31,60.1,0c0,0,7-2.58,7.89-10.1,0,0-.9-2.86-21.85-3.52,0,0-30.27-1.33-43.9.66C11.71,129.74,3.42,130,0,132.6Z"/><path class="cls-2" d="M212.91,24.91a28.08,28.08,0,0,1-4.33,2.17c-1.16-1.82-2.1,0-2.1,0h-1l-3.42-2.48-10.22.19c-3.47,1.88-14.76,1.75-14.76,1.75C151.94,26.39,147.16,18,147.16,18a17,17,0,0,1-6.7-1.71c-2.69-1.56-12.38-2.55-12.38-2.55l-1.8-2.56C129.62,6.42,123.07,0,123.07,0l0,14.85L123,0s-6.55,6.42-3.21,11.17L118,13.73s-9.69,1-12.37,2.55A17.08,17.08,0,0,1,98.88,18S94.1,26.39,69,26.54c0,0-11.29.13-14.76-1.75L44,24.6l-3.42,2.48h-1s-1-1.82-2.11,0a28.08,28.08,0,0,1-4.33-2.17s-2.48,0-1.71,3.35,3.89,5.31,4.84,5.77c0,0-1.32,3.11.74,4.42s5.47-.58,3.83-4.51c0,0,2.45.82,4.21-5.06,0,0,10.43,1.34,14.47,2.6s22.62,1.69,26.4.43,28.08-5.55,30.35-5.05c0,0,1.69,2,3.2,2.1a2.81,2.81,0,0,1-1.93,2l2.6,2.94-2,4.94.12,76.49s-4.77,2.73-4.6,8.21,2.62,6.76,2.62,6.76-18.33,26.66-6.87,39H93.84s-3.69,2.52-.67,5.61H79.67s-5.12,3.24-.45,7.53H67.4a5,5,0,0,0,0,7.74H178.64a5,5,0,0,0,0-7.74H166.82c4.68-4.29-.45-7.53-.45-7.53H152.88c3-3.09-.68-5.61-.68-5.61H136.66c11.45-12.34-6.87-39-6.87-39s2.44-1.27,2.61-6.76-4.6-8.21-4.6-8.21l.12-76.49-2-4.94L128.52,31a2.81,2.81,0,0,1-1.94-2c1.52-.08,3.2-2.1,3.2-2.1,2.27-.5,26.57,3.78,30.35,5.05s22.37.84,26.41-.43S201,28.88,201,28.88c1.76,5.88,4.21,5.06,4.21,5.06-1.64,3.93,1.77,5.81,3.83,4.51s.74-4.42.74-4.42c.95-.46,4.08-2.41,4.84-5.77S212.91,24.91,212.91,24.91Z"/><line class="cls-1" x1="205.54" y1="41.57" x2="180.09" y2="126.17"/><line class="cls-1" x1="209.05" y1="40.83" x2="235.07" y2="127.28"/><path class="cls-2" d="M246,132.6s-2.8,8.48-9.47,10.1-45.47,3.31-60.1,0c0,0-7-2.58-7.89-10.1,0,0,.91-2.86,21.86-3.52,0,0,30.26-1.33,43.89.66C234.33,129.74,242.62,130,246,132.6Z"/></g></svg>