<svg id="Layer_1" data-name="Layer 1" xmlns="http://www.w3.org/2000/svg" viewBox="0 0 239.88 227.84"><defs><style>

#pisces:hover {
    fill: yellow;
}

.cls-1{fill:#ed1c24;}</style></defs><g id="fish"><path class="cls-1" d="M77.29,10S-11.72,47,32.16,128.57c0,0-30.53-46.76,72.27-75.74C104.43,52.83,66.83,36.1,77.29,10Z"/><path class="cls-1" d="M139.62,2S107.38-4.41,85.75,5.8c0,0-21.32,24.33,25.43,39.92C111.18,45.72,172.7,13.73,139.62,2ZM109.25,14c-2.76,0-5-1.46-5-3.28s2.23-3.28,5-3.28,5,1.47,5,3.28S112,14,109.25,14Z"/><path class="cls-1" d="M24.1,52.05s7.37-23,24.95-31.47c0,0-8.93-11.89-49,2.28,0,0,15.46-4.26,19,4S12.62,51.2,24.1,52.05Z"/><path class="cls-1" d="M19.94,108.51S-9.15,182,44.07,222.63c0,0-27.47-28.35-9.75-54.16,0,0,9-18.09,44.46-6.41C78.78,162.06,19.8,144.64,19.94,108.51Z"/><path class="cls-1" d="M104.26,57.92s-10.81,8-5.31,27.52-15.57,25.08-15.57,25.08,11.29-12.85,1.51-20.8c0,0-5.81-7.64-13.15-2.75s-9.52-1.23-9.52-1.23-3.63-8.86,8.6-14.36S94,66.18,104.26,57.92Z"/><path class="cls-1" d="M162.66,217.59s88.79-37.47,44.43-118.83c0,0,30.81,46.58-71.82,76.18C135.27,174.94,173,191.44,162.66,217.59Z"/><path class="cls-1" d="M100.39,226s32.27,6.19,53.84-4.15c0,0,21.18-24.47-25.67-39.77C128.56,182.09,67.23,214.45,100.39,226Zm30.3-12.25c2.75,0,5,1.44,5,3.25s-2.22,3.3-5,3.31-5-1.44-5-3.25S127.93,213.78,130.69,213.76Z"/><path class="cls-1" d="M215.6,175.23s-7.23,23-24.76,31.62c0,0,9,11.84,49-2.57,0,0-15.43,4.36-19-3.84S227.09,176,215.6,175.23Z"/><path class="cls-1" d="M219.42,118.75s28.66-73.62-24.81-114c0,0,27.64,28.19,10.08,54.1,0,0-8.87,18.15-44.42,6.68C160.27,65.56,219.35,82.62,219.42,118.75Z"/><path class="cls-1" d="M135.41,169.84s10.77-8,5.15-27.54S156,117.12,156,117.12,144.76,130,154.6,137.93c0,0,5.85,7.61,13.16,2.68s9.53,1.16,9.53,1.16,3.67,8.85-8.52,14.42S145.65,161.53,135.41,169.84Z"/></g></svg>