<svg id="Layer_1" data-name="Layer 1" xmlns="http://www.w3.org/2000/svg" viewBox="0 0 227.39 229.18"><defs><style>.cls-1{fill:#ed1c24;}</style></defs><path class="cls-1" d="M214.48,146.53c-2.32-46.46-40.64-60.91-40.64-60.91l1.24-1.39c-4.47-4.64-4.81-3.26-4.81-3.26-3.44-.52-11.08-10.73-11.08-10.73L172,57.53l1.31-.22,12.94-16.22-16,13.37v1.15l-13.41,13c-7.17-4.19-9.79-13.28-11.37-15A4.76,4.76,0,0,0,142,52C132.07,30.9,103.5,9.81,59.27,13S0,0,0,0C.65,4.11,6,8.6,6,8.6l52.81,160,6.39,2.7,153,50.9c8.23,9.17,9.19,6.69,9.19,6.69C214,216.74,216.8,193,214.48,146.53Zm-156,15.69L8.38,10.77S23,21,67.21,21.68,131.48,50.75,134,61c0,0-1,.83,0,2.61a16.35,16.35,0,0,0,2.8,3.37l10.61,11.84L73.82,152.91l-6.2,1.46Zm5.89,7.43,9.82-10,1.16-5.32,73.46-74.25.48.74L160.87,91l-.45,1,3.09,2.19s2.06,1.19,2.21-.78c0,0,32.67,15.59,37,43.19s4.67,73.78,14.58,83.88Z"/></svg>