<svg id="Layer_1" data-name="Layer 1" xmlns="http://www.w3.org/2000/svg" viewBox="0 0 255.66 239.2"><defs><style>.cls-1{fill:#ed1c24;}</style></defs><path class="cls-1" d="M141.3,154.23s-12.14,5.31-4.93,28.08a48.56,48.56,0,0,1-19.55-12.15s-13.6-4.84-22.81-3.22c0,0,10.83,6.32,15.9,15.37s33.64,23.11,58.3,20.12c0,0-12.9,26.27-71.67,16.59,0,0,.92,9,30,10.6,0,0-5.3,13.37-34.34,8.53s-40.79-28.81-43.55-35.72c0,0-9-7.61-8.07-28.58S62,140.67,69.12,140c0,0,6.68-5.53,24.66-1.84,0,0-3.69-5.07-15.45-11.29,0,0-16.22-3.22-22.17-2,0,0-9.33,15.47-24.61,21.23,0,0,4.14,17.86-6.56,24.8,0,0,5.34-15.47,0-26.59,0,0,23-12.5,24.62-23.41,0,0,3.77-3.38,19-2.19l-3.17-5.35s-8.54.19-22-8.93c0,0-13.3,14.68-28.78,17.26,0,0,3.18,20.84-14.68,25.8,0,0,11.71-6.35,8.33-28.18,0,0,30.17-13.89,31.76-20.84a7.86,7.86,0,0,1,5.55,0c2.58,1.19,6.75,5.76,9.33,4.76a32.62,32.62,0,0,1-2.78-9.72s-8.53-6.35-8.93-8.93c0,0-3.77-.79-5.36-3.37,0,0-6.35,4.16-13.89,3.17,0,0-2,14.69-11.9,16.87A3.27,3.27,0,0,1,8.93,99c-1-2.38,5-.2,10.52-14.49,0,0-.8-3.77.2-5s6.35-.4,10.12-2.18,6.15-2.19,7.74-2c0,0-14.92-22.14-8.22-50.87S67-5.54,75.06,9.4c0,0,14.55,2.68,18.77,27.77,0,0-1.73,20.68-5.94,23.75,0,0-1.91-10.92-6.7-14.75,0,0-3.64,9.38-7.09,9.38,0,0-8.42-6.32-8-11.3s2.11-14.93-1.53-22S52.08,7.49,46,19.36s5,46.92,22.79,49c0,0,8.43.58,11.87-1.91,0,0,8.24,5.36,9,5.74s-2.87,2.88-2.87,2.88l-5.17-4L76,74.51l25.47,8.62s5.55-3.26,9.19-3.45,4.6,5.37,12.26,9c0,0,6.7.77,6.7.39s1.34,4.59-9.19,4.21a21.25,21.25,0,0,1-8.81-7.85L109.53,87s8.81,5.55,12.06,8.43c0,0,8.24,1.34,11.88,4.21l9.76-5.94s9.39,6.71,10,8.24-2.3,3.06-2.3,3.06l-6.31-5.17L139,104s10.53,7.86,12.45,19.73c0,0-.58,6.32,1.72-2.49S154,94.43,171.77,95c0,0,15-9.07,32.33-3s17.32,11.7,17.32,11.7,9.68-1.58,15.75,4.5,19.35,34.87,18.45,51.29-5.85,34.65-10.57,43.88c0,0-4.05-29.25-13.73-36,0,0,0,5,1.58,8.32,0,0-24.3-5.51-31.05-47.47,0,0-14.85-7.09-21.38-12.94,0,0-1.12,27.68-14.84,36.45,0,0,3.82,9.9-2,16.42C163.6,168.16,158.15,150.88,141.3,154.23Z"/></svg>