<svg id="Layer_1" data-name="Layer 1" xmlns="http://www.w3.org/2000/svg" viewBox="0 0 213.08 195.38"><defs><style>.cls-1{fill:#ed1c24;}</style></defs><g id="ox"><path class="cls-1" d="M64.55,57.22S53.43,76.42,54.24,89.36c0,0-48.12.81-53.78-29.72S42.92,1.82,53,0C53,0-14.5,51.15,64.55,57.22Z"/><path class="cls-1" d="M148.52,57.22s11.12,19.2,10.31,32.14c0,0,48.12.81,53.78-29.72S170.16,1.82,160.05,0C160.05,0,227.58,51.15,148.52,57.22Z"/><path class="cls-1" d="M133.48,117.92c-10.25,2.2-14.82,7.41-15,6.3s3.15-10.09,12.44-12.61,17.36-9.44,17.36-9.44a24.93,24.93,0,0,1,.31,4.08c8.67-6.31,9-33.73.83-44.53s-42.9-11.09-42.9-11.09-34.73.29-42.91,11.09-7.84,38.22.83,44.53a24.16,24.16,0,0,1,.32-4.08s8.06,6.92,17.35,9.44,12.6,11.51,12.44,12.61-4.72-4.1-15-6.3-13.92-9.51-13.92-9.51l-7.59,8.76s4.09,26.85,7.59,30.06,19,18.09,18.68,39.4c0,0,5,8.17,22.18,8.75,17.21-.58,22.18-8.75,22.18-8.75-.29-21.31,15.18-36.19,18.68-39.4S155,117.17,155,117.17l-7.59-8.76S143.73,115.71,133.48,117.92Zm-42.32,59.2c-1.86,0-3.38-2.09-3.38-4.66s1.52-4.66,3.38-4.66,3.38,2.09,3.38,4.66S93,177.12,91.16,177.12Zm30.75,0c-1.86,0-3.37-2.09-3.37-4.66s1.51-4.66,3.37-4.66,3.38,2.09,3.38,4.66S123.78,177.12,121.91,177.12Z"/></g></svg>