<svg id="Layer_1" data-name="Layer 1" xmlns="http://www.w3.org/2000/svg" viewBox="0 0 232.05 236.17"><defs><style>.cls-1{fill:#ed1c24;}</style></defs><path class="cls-1" d="M135.36,15.33s-9.44,17,11.8,28.84S156.6,73,150.3,78,132.73,96.61,139,104.22c0,0-.15-20,23.44-17.15,0,0-15.57,9.47-4.81,21.67s15.73,5.3,23.76,18-10,18.94-9.63,7.38c0,0-2.25-.32-3.38,3.38s4.66,8.5,8.67,7.7,14-2.08,9.64-24.08c0,0-1.93-14.45,14.12-10.11a5.77,5.77,0,0,1,2.77,5.59s-12.46,9.3-5.58,23.26,26.23,23.51,13.81,52-44.14,32.5-44.14,32.5,28,4.5,53.12-30.12-.36-52,3.83-78.15c0,0,10.83-24.79,5.24-50.63S195.32-16.58,136.3,4.72c0,0-36.67,14.32-41.56,40.86s-7.33,46.1-54.13,55.88S-.25,163.62,23.5,168.51c0,0,10.13,2.09,10.82-7,0,0,0-6.63-5.23-5.93,0,0,5.45,8.64-5.67,7.23s-13.28-18.16-10.15-27.73,13.86-20.31,35.93-26.95c0,0,33.79-4.88,34.57-10,0,0-1,9-13.87,10.93S33,119.86,28.7,135.28c0,0-.82,5.6,8.39,14s1.84,25.25-2.37,25.78c0,0,6.84-1,9.21-6.58s2.37-13.41-2.37-20.77,12.36-27.1,37.61-28.15c0,0-27.35,12.63-26.56,22.88s13.94,38.14-14.47,39.72S7.63,183.75,0,193.48c0,0-.52-5.52,16.31-6.57,0,0,14.2-.53,17.89,1.31S61.81,190.33,63.92,178s-1.05-30.84,37.35-41.46c0,0-19.2,9.37-26,21.47s1.84,19.47-9.21,28.94-41.29,5-46,13.15,1.84,22.09,15.52,19.2,9.47-16.83-1.58-13.68c0,0,2.63,8.68-2.89,7.63s-11.75-5.26-2.37-12.1,15,1,32.35-6.58,21-16.57,21-25.77,12.62-25.52,27.62-25.52c0,0-15.79,6.84-18.94,16s-3.16,13.94-3.16,13.94S94.74,151.4,116,145.35c0,0-11.86,9.47-16.33,21.57,0,0-3.42,12.89-15.78,24.2s-28.67,9.46-31.57,19.72c0,0-1.31,3.95,6.32,9.73s-7.63,18.68-15,10.79c0,0,1.32,6.84,10,4.21a15.12,15.12,0,0,0,11-16.57s-4.47-12.37,3.94-16.57S97.17,189,100.21,177.94s21.05-29.26,32.46-25.69c0,0-19.26,17.3-21.76,30.86s2.14,26,16.06,29.26c0,0,10.7,1.25,14.09-5.36,0,0-12.31,5.89-16.41-5.17,0,0-6.25-12.31,9.81-19.44,0,0,25-3.93,23-24.44s-20.69-34.25-33-29.26c0,0-9.4,3.45-13,.61s-4.36-4.45-3-13c0,0-3.33-3.71-5.67-4.3s1.37-4.88,1.37-4.88-4.89-1.37-4.89-3.32,2.93-3.52,3.13-5.08,0-3.91-5.67-8.21,4.11-6.84,6.84-14.07,4.1-7.62,2-19.53S107.77,26.81,135.36,15.33Z"/></svg>